<?xml version="1.0" encoding="UTF-8"?>
<svg version="1.1" xmlns="http://www.w3.org/2000/svg" width="298" height="290">
<path d="M0 0 C0.99 0.33 1.98 0.66 3 1 C3.93455359 3.45094214 4.68402326 5.79287194 5.375 8.3125 C10.11722073 24.41099724 17.06400259 38.18140342 28 51 C28.61488281 51.76054687 29.22976562 52.52109375 29.86328125 53.3046875 C45.6789318 72.23107678 73.07572332 85.28441625 97.37646484 87.80151367 C112.16326419 88.92022462 127.69631435 89.27336719 142 85 C142.67144043 84.80132324 143.34288086 84.60264648 144.03466797 84.39794922 C170.7841599 76.28375432 191.66826641 59.1632536 207 36 C207.57621094 35.14664063 208.15242187 34.29328125 208.74609375 33.4140625 C215.02803498 23.59139075 218.99200842 12.21400369 222 1 C222.99 1.33 223.98 1.66 225 2 C232.8927942 20.12918259 226.79867442 44.68937767 220.14599609 62.25488281 C218.33765892 66.63339813 216.23809224 70.82320945 214 75 C213.4328125 76.06605469 212.865625 77.13210937 212.28125 78.23046875 C208.47677229 85.05258901 204.08370647 91.08165516 199 97 C198.2884375 97.845625 197.576875 98.69125 196.84375 99.5625 C179.06859078 120.09155713 153.71621972 133.11681638 127 137 C112.62819206 137.76848361 97.89877092 138.09369975 84 134 C82.79085937 133.6596875 81.58171875 133.319375 80.3359375 132.96875 C61.05227246 127.05988369 44.56470454 116.911804 30 103 C29.31421875 102.38898438 28.6284375 101.77796875 27.921875 101.1484375 C9.87861289 84.45486823 -0.28113491 57.08662025 -2 33 C-2.13318528 28.76966846 -2.14019613 24.54462356 -2.125 20.3125 C-2.12886719 19.22388672 -2.13273437 18.13527344 -2.13671875 17.01367188 C-2.11860925 2.11860925 -2.11860925 2.11860925 0 0 Z " fill="#FCFCFC" transform="translate(39,130)"/>
<path d="M0 0 C-0.61192944 3.10824031 -1.61738414 5.18705071 -3.44140625 7.765625 C-3.93890381 8.48250488 -4.43640137 9.19938477 -4.94897461 9.93798828 C-5.48143799 10.70095215 -6.01390137 11.46391602 -6.5625 12.25 C-23.35944154 36.96738968 -33.16539092 66.39515644 -27.875 96.5 C-23.89631742 114.11723636 -16.07304178 130.19014149 -5.14941406 144.52197266 C-2 148.70181167 -2 148.70181167 -2 152 C-11.60646772 156.80323386 -30.50981971 153.06222755 -40.2578125 149.96484375 C-62.13691231 142.0711082 -78.3548365 126.64051083 -88.54296875 105.8515625 C-96.81292831 86.98344362 -95.6516947 66.49146678 -88.75 47.3125 C-80.6206219 27.63844294 -66.45704998 12.03774215 -47 3 C-32.11994945 -2.52165586 -15.40248985 -4.05900909 0 0 Z " fill="#FCFCFC" transform="translate(192,8)"/>
<path d="M0 0 C0.66 0.33 1.32 0.66 2 1 C1.35783477 5.1624686 -0.05543105 8.55837934 -1.8125 12.375 C-11.58153044 34.32077557 -13.3018551 58.96664332 -5.05078125 81.64550781 C4.06742785 105.32149256 21.03503492 123.45285366 44 134 C67.67523255 143.85496133 94.67661297 141.60923546 118 132 C119.35687286 131.40193583 120.71168929 130.79913318 122.0625 130.1875 C124.97516514 129.01003962 126.89644207 128.71785837 130 129 C128.56246045 132.31002696 126.77516456 134.43889464 124.1875 136.9375 C123.46820313 137.63746094 122.74890625 138.33742187 122.0078125 139.05859375 C121.01394531 140.01958984 121.01394531 140.01958984 120 141 C119.195625 141.825 118.39125 142.65 117.5625 143.5 C116.716875 144.325 115.87125 145.15 115 146 C114.401875 146.59425781 113.80375 147.18851563 113.1875 147.80078125 C95.85760431 164.20684059 74.17717068 169.58150785 50.890625 169.2109375 C24.79880026 168.36488554 3.2279263 158.82163092 -14.921875 140.0078125 C-33.07737259 120.00463152 -40.12702389 95.5328511 -39.34765625 68.89453125 C-37.82229912 41.14833965 -21.75094247 19.33121299 -2 1 C-1.34 0.67 -0.68 0.34 0 0 Z " fill="#FCFCFC" transform="translate(96,37)"/>
</svg>
